<svg xmlns="http://www.w3.org/2000/svg" xmlns:xlink="http://www.w3.org/1999/xlink" viewBox="0 0 300 300"><defs><style>.cls-1{fill:url(#名称未設定グラデーション_44);}.cls-2{fill:#fff;}</style><linearGradient id="名称未設定グラデーション_44" x1="-30.15" y1="254.01" x2="471.72" y2="-35.75" gradientUnits="userSpaceOnUse"><stop offset="0" stop-color="#ff6400"/><stop offset="1" stop-color="#ff1400"/></linearGradient></defs><g id="レイヤー_2" data-name="レイヤー 2"><g id="レイヤー_1-2" data-name="レイヤー 1"><rect class="cls-1" width="300" height="300"/><path class="cls-2" d="M115.29,243.21c-13.69,0-25.3-3.51-33.59-10.14A34.94,34.94,0,0,1,68.57,205.2c0-15.13,6-30.21,16.92-43.5a77.7,77.7,0,0,1,16.21-39.37c11.68-14.53,27.58-22.54,44.78-22.54,17.54,0,32.09,5.54,42.07,16l.55.59c5-.34,10.18-.5,15.39-.5,2.67,0,5.23,0,7.74.06A46,46,0,0,0,195.4,86c-12-9.77-29.39-14.93-50.26-14.93-19.61,0-41,7.72-60.37,21.76C66.67,106,51.69,123.82,43.7,141.72a7.16,7.16,0,1,1-13.08-5.84c9-20.12,25.67-40,45.74-54.6,21.75-15.79,46.17-24.49,68.78-24.49,24.2,0,44.7,6.27,59.29,18.14a60,60,0,0,1,22.29,41.55c11.41.67,22.68,2,37.2,4.18a7.16,7.16,0,0,1-2.15,14.16c-13.66-2.08-24.33-3.33-35-4-1.87,19.82-11.31,40.9-26.06,57.64q-2.42,2.75-5,5.26a89.1,89.1,0,0,1-18.24,24.18,93.59,93.59,0,0,1-28.09,18.33A87.45,87.45,0,0,1,115.29,243.21ZM87.07,186a47.92,47.92,0,0,0-4.19,19.2c0,7,2.61,12.57,7.77,16.69,5.72,4.58,14.24,7,24.64,7A75.42,75.42,0,0,0,153,218.43,79.8,79.8,0,0,1,134,220.74c-13.19,0-25.38-4.76-34.31-13.42A47,47,0,0,1,87.07,186Zm12.31-18.45c0,.92-.07,1.85-.07,2.78,0,10.94,3.57,20.18,10.31,26.71A34.66,34.66,0,0,0,134,206.43c18,0,35.48-7.49,50-21.26a57.46,57.46,0,0,0,5.63-24.23c0-12.14-2.38-22.06-7.09-29.63a175.23,175.23,0,0,0-30.82,5.93c-14.6,4.25-27.47,10.3-38.25,18A90,90,0,0,0,99.38,167.55Zm98.78-37.26c3.55,8,5.48,17.36,5.75,28a82.49,82.49,0,0,0,8.5-28c-2.56-.05-5.19-.07-7.92-.07C202.37,130.2,200.25,130.23,198.16,130.29Zm-51.68-16.18c-12.77,0-24.71,6.1-33.63,17.19a60.07,60.07,0,0,0-7.52,12.15,140.88,140.88,0,0,1,42.38-20,181.64,181.64,0,0,1,21-4.76C162.59,115.66,155.14,114.11,146.48,114.11Z"/></g></g></svg>