<svg xmlns="http://www.w3.org/2000/svg" xmlns:xlink="http://www.w3.org/1999/xlink" viewBox="0 0 801.78 174.96"><defs><style>.cls-1{isolation:isolate;}.cls-2{mix-blend-mode:lighten;}.cls-3{fill:url(#名称未設定グラデーション_42);}</style><linearGradient id="名称未設定グラデーション_42" y1="87.48" x2="225.25" y2="87.48" gradientUnits="userSpaceOnUse"><stop offset="0" stop-color="#ff6400"/><stop offset="0.49" stop-color="#ff1400"/><stop offset="0.66" stop-color="#ff2b00"/><stop offset="1" stop-color="#ff6400"/></linearGradient></defs><g class="cls-1"><g id="レイヤー_2" data-name="レイヤー 2"><g id="レイヤー_1-2" data-name="レイヤー 1"><path class="cls-2" d="M296.69,128.1H240.47L296.77,63a2.42,2.42,0,0,0-1.83-4h-56.3a.77.77,0,0,0-.77.76V63a.77.77,0,0,0,.77.77h51l-56.29,65.15a2.42,2.42,0,0,0,1.83,4h61.5a.76.76,0,0,0,.76-.76v-3.32A.76.76,0,0,0,296.69,128.1Z"/><rect class="cls-2" x="540.01" y="58.95" width="4.84" height="71.58" rx="0.76"/><path class="cls-2" d="M440.3,55.54A33.62,33.62,0,0,0,411.66,72.1V59.72a.76.76,0,0,0-.76-.76h-3.32a.76.76,0,0,0-.76.76v70a.76.76,0,0,0,.76.76h3.32a.76.76,0,0,0,.76-.76V88c0-15,12.81-27.21,28.7-27.58a.74.74,0,0,0,.74-.74V56.32A.79.79,0,0,0,440.3,55.54Z"/><path class="cls-2" d="M483.22,55.54c-20.48,0-37.15,17.83-37.15,39.74S462.74,135,483.22,135s37.16-17.83,37.16-39.75S503.71,55.54,483.22,55.54Zm0,75c-18.28,0-32.31-16-32.31-35.29s13.91-35.15,32.31-35.15S515.54,76,515.54,95.28,501.46,130.57,483.22,130.57Z"/><path class="cls-2" d="M685.61,55.54c-20.49,0-37.15,17.83-37.15,39.74S665.12,135,685.61,135s37.15-17.83,37.15-39.75S706.1,55.54,685.61,55.54Zm0,74.92c-17.82,0-32.31-15.93-32.31-35.18s14.49-35.17,32.31-35.17S717.92,76,717.92,95.28,703.43,130.46,685.61,130.46Z"/><path class="cls-2" d="M770.89,55.54A30,30,0,0,0,744.83,70V59.71a.76.76,0,0,0-.76-.76h-3.31a.77.77,0,0,0-.77.76v70a.77.77,0,0,0,.77.76h3.31a.76.76,0,0,0,.76-.76V85.29c0-14.24,11.69-25.18,26.06-25.18,14.06,0,26.05,10.65,26.05,26.56v43.09a.77.77,0,0,0,.77.76H801a.76.76,0,0,0,.76-.76v-45C801.78,68.65,787.92,55.54,770.89,55.54Z"/><path class="cls-2" d="M348.68,55.54c-20.49,0-37.16,17.83-37.16,39.74S328.19,135,348.68,135c11.76,0,24.56-6.08,32.12-15.2a.78.78,0,0,0-.13-1.1l-2.6-2.06a.73.73,0,0,0-1,.12,38.72,38.72,0,0,1-28.36,13.4c-17.71,0-32.13-15.45-32.32-34.51h67a2.41,2.41,0,0,0,1.75-.76,2.36,2.36,0,0,0,.66-1.78C384.72,72.06,368.43,55.54,348.68,55.54Zm-32.06,35.3c2-17.16,15.63-30.46,32.06-30.46s30,13.18,32.05,30.46Z"/><path class="cls-2" d="M599.69,55.54A29.94,29.94,0,0,0,573.64,70V59.71a.76.76,0,0,0-.76-.76h-3.32a.76.76,0,0,0-.76.76v70a.76.76,0,0,0,.76.76h3.32a.76.76,0,0,0,.76-.76V85.29c0-14.24,11.69-25.18,26.05-25.18,14.07,0,26.06,10.65,26.06,26.56v43.09a.76.76,0,0,0,.76.76h3.32a.76.76,0,0,0,.76-.76v-45C630.59,68.65,616.73,55.54,599.69,55.54Z"/><path class="cls-3" d="M80.05,175c-12.85,0-23.75-3.29-31.53-9.51A32.81,32.81,0,0,1,36.2,139.29c0-14.2,5.61-28.35,15.88-40.82a73,73,0,0,1,15.21-37c11-13.64,25.89-21.15,42-21.15,16.47,0,30.12,5.19,39.48,15l.52.56q7.1-.48,14.45-.48c2.5,0,4.91,0,7.26.06a43.16,43.16,0,0,0-15.8-28.07c-11.27-9.17-27.58-14-47.17-14-18.4,0-38.52,7.25-56.66,20.42-17,12.34-31,29.05-38.55,45.85A6.71,6.71,0,1,1,.59,74.23C9,55.34,24.67,36.66,43.51,23,63.92,8.16,86.85,0,108.06,0c22.71,0,42,5.89,55.65,17a56.34,56.34,0,0,1,20.92,39c10.71.63,21.29,1.86,34.91,3.93a6.72,6.72,0,1,1-2,13.28c-12.81-2-22.83-3.12-32.87-3.74-1.75,18.61-10.62,38.39-24.46,54.1-1.51,1.71-3.06,3.36-4.65,4.93a83.29,83.29,0,0,1-17.12,22.69,87.38,87.38,0,0,1-26.36,17.21A82.16,82.16,0,0,1,80.05,175ZM53.56,121.27a45,45,0,0,0-3.93,18A19.11,19.11,0,0,0,56.92,155c5.37,4.29,13.37,6.57,23.13,6.57a70.87,70.87,0,0,0,35.42-9.82,75.18,75.18,0,0,1-17.89,2.16,45.9,45.9,0,0,1-32.21-12.59A44.22,44.22,0,0,1,53.56,121.27ZM65.11,104q-.06,1.3-.06,2.61c0,10.27,3.35,18.94,9.67,25.07a32.54,32.54,0,0,0,22.86,8.81c16.88,0,33.3-7,47-20a54,54,0,0,0,5.28-22.75c0-11.38-2.23-20.7-6.65-27.8a165.06,165.06,0,0,0-28.93,5.56,118.7,118.7,0,0,0-35.9,16.9A85.18,85.18,0,0,0,65.11,104Zm92.72-35c3.33,7.5,5.14,16.29,5.39,26.31a77.34,77.34,0,0,0,8-26.33c-2.4,0-4.87-.06-7.43-.06Q160.77,68.9,157.83,69ZM109.32,53.79c-12,0-23.19,5.73-31.56,16.14a55.87,55.87,0,0,0-7.06,11.4A132.2,132.2,0,0,1,110.48,62.6a173.08,173.08,0,0,1,19.73-4.47C124.44,55.25,117.45,53.79,109.32,53.79Z"/></g></g></g></svg>