<svg xmlns="http://www.w3.org/2000/svg" viewBox="0 0 371.5 161.81"><defs><style>.cls-1{fill:#fff;}.cls-2{fill:#231815;}</style></defs><g id="レイヤー_1" data-name="レイヤー 1"><rect class="cls-1" x="182.85" y="161.81" width="10.97"/></g><g id="レイヤー_2" data-name="レイヤー 2"><path class="cls-2" d="M268.69,390.93l-14.58-14.58-9,9c-11-25.7-34.32-42.26-59.62-42.26A59.51,59.51,0,0,0,159.67,349c-32,6.6-55.25,37.81-55.25,74.25a83.57,83.57,0,0,0,4.28,26.48L93.15,465.28l14.57,14.58,10.65-10.63c12.91,18.8,32.42,29.56,53.63,29.56a61.28,61.28,0,0,0,30.05-7.87c29.32-8.52,49.79-38.41,49.79-72.72a83.18,83.18,0,0,0-.58-9.85Zm-35.1,5.94L199,431.44l-36-36-40.4,40.33a83.6,83.6,0,0,1-1.84-17.57c0-29.53,15.47-56,39.41-67.61,31.59-6.39,62.29,13.8,73.39,46.28Zm-48.1,94.76c-22.51,0-43-12.92-54.91-34.59l32.48-32.43,36,36,38.86-38.92v1.58c0,28.19-14,53.51-36.53,66.12A57.4,57.4,0,0,1,185.49,491.63Z" transform="translate(-93.15 -343.09)"/></g><g id="zeroinon_side" data-name="zeroinon side"><path d="M245,486.72l13.83-11.64h-13.5v-6.47h23v7.76l-14.48,12h14.81v6.47H245Z" transform="translate(-93.15 -343.09)"/><path d="M298.7,490.28a13.11,13.11,0,0,1-5,3.83,15.16,15.16,0,0,1-6.25,1.35,17.25,17.25,0,0,1-5.79-1,14.07,14.07,0,0,1-4.72-2.78,12.8,12.8,0,0,1-3.15-4.34,14.39,14.39,0,0,1,0-11.32,12.8,12.8,0,0,1,3.15-4.34,13.91,13.91,0,0,1,4.72-2.78,17,17,0,0,1,5.79-1,13.32,13.32,0,0,1,5.18,1,10.81,10.81,0,0,1,3.95,2.78,12.61,12.61,0,0,1,2.5,4.34,17.33,17.33,0,0,1,.87,5.66v2.53H280.87a6.43,6.43,0,0,0,2.14,3.7,6.16,6.16,0,0,0,4.06,1.37,6.3,6.3,0,0,0,3.43-.89,9.13,9.13,0,0,0,2.44-2.29Zm-7-11.54a4.63,4.63,0,0,0-1.37-3.5,4.91,4.91,0,0,0-3.67-1.46,6.45,6.45,0,0,0-2.42.43,6.11,6.11,0,0,0-1.78,1.11,4.86,4.86,0,0,0-1.15,1.56,5.1,5.1,0,0,0-.47,1.86Z" transform="translate(-93.15 -343.09)"/><path d="M305,468.61h8.22v4.2h.11a10,10,0,0,1,3.13-3.64A8,8,0,0,1,321,468c.48,0,.95,0,1.43.05a7.42,7.42,0,0,1,1.32.22v7.39a12.71,12.71,0,0,0-1.73-.41,11.38,11.38,0,0,0-1.78-.13,8.87,8.87,0,0,0-3.73.64,5,5,0,0,0-2.12,1.81,6.89,6.89,0,0,0-1,2.78,27.48,27.48,0,0,0-.22,3.55v10.95H305Z" transform="translate(-93.15 -343.09)"/><path d="M325.31,481.71a13.47,13.47,0,0,1,1.15-5.66,13,13,0,0,1,3.16-4.34,13.86,13.86,0,0,1,4.71-2.78,17.77,17.77,0,0,1,11.58,0,14,14,0,0,1,4.72,2.78,13.07,13.07,0,0,1,3.15,4.34,14.5,14.5,0,0,1,0,11.32,13.07,13.07,0,0,1-3.15,4.34,14.17,14.17,0,0,1-4.72,2.78,17.77,17.77,0,0,1-11.58,0,14,14,0,0,1-4.71-2.78,13,13,0,0,1-3.16-4.34A13.51,13.51,0,0,1,325.31,481.71Zm8.23,0a6.69,6.69,0,0,0,1.73,4.8,7.36,7.36,0,0,0,9.71,0,7.56,7.56,0,0,0,0-9.6,7.36,7.36,0,0,0-9.71,0A6.67,6.67,0,0,0,333.54,481.71Z" transform="translate(-93.15 -343.09)"/><path d="M359.21,460.36a4.5,4.5,0,0,1,1.4-3.32,4.84,4.84,0,0,1,6.75,0,4.62,4.62,0,0,1,0,6.63,4.82,4.82,0,0,1-6.75,0A4.47,4.47,0,0,1,359.21,460.36Zm.66,8.25h8.23v26.2h-8.23Z" transform="translate(-93.15 -343.09)"/><path d="M374,468.61h7.9v3.55H382a6.52,6.52,0,0,1,1.1-1.5,7.44,7.44,0,0,1,1.7-1.35,9.72,9.72,0,0,1,5-1.35,11.49,11.49,0,0,1,5.05.94,7.22,7.22,0,0,1,3,2.62,10.35,10.35,0,0,1,1.45,3.93,29,29,0,0,1,.39,4.91v14.45h-8.23V482c0-.76,0-1.54-.08-2.35a7.33,7.33,0,0,0-.5-2.24,3.81,3.81,0,0,0-1.26-1.67,4,4,0,0,0-2.44-.64,5.14,5.14,0,0,0-2.58.56,3.91,3.91,0,0,0-1.51,1.51,6.06,6.06,0,0,0-.68,2.13,18,18,0,0,0-.17,2.48v13.05H374Z" transform="translate(-93.15 -343.09)"/><path d="M404.52,481.71a13.48,13.48,0,0,1,1.16-5.66,12.94,12.94,0,0,1,3.15-4.34,14,14,0,0,1,4.72-2.78,17.74,17.74,0,0,1,11.57,0,13.91,13.91,0,0,1,4.72,2.78,13,13,0,0,1,3.16,4.34,14.5,14.5,0,0,1,0,11.32,13,13,0,0,1-3.16,4.34,14.07,14.07,0,0,1-4.72,2.78,17.74,17.74,0,0,1-11.57,0,14.17,14.17,0,0,1-4.72-2.78,12.94,12.94,0,0,1-3.15-4.34A13.51,13.51,0,0,1,404.52,481.71Zm8.23,0a6.73,6.73,0,0,0,1.73,4.8,7.36,7.36,0,0,0,9.71,0,7.52,7.52,0,0,0,0-9.6,7.36,7.36,0,0,0-9.71,0A6.72,6.72,0,0,0,412.75,481.71Z" transform="translate(-93.15 -343.09)"/><path d="M439,468.61h7.9v3.55H447a6.46,6.46,0,0,1,1.09-1.5,7.66,7.66,0,0,1,1.7-1.35,9.72,9.72,0,0,1,5-1.35,11.47,11.47,0,0,1,5,.94,7.22,7.22,0,0,1,3,2.62,10.36,10.36,0,0,1,1.46,3.93,30.12,30.12,0,0,1,.38,4.91v14.45h-8.23V482c0-.76,0-1.54-.08-2.35a7.63,7.63,0,0,0-.49-2.24,3.91,3.91,0,0,0-1.27-1.67,4,4,0,0,0-2.44-.64,5.14,5.14,0,0,0-2.58.56,3.89,3.89,0,0,0-1.5,1.51,6.07,6.07,0,0,0-.69,2.13,18,18,0,0,0-.16,2.48v13.05H439Z" transform="translate(-93.15 -343.09)"/></g></svg>